<svg width="22" height="24" viewBox="0 0 22 24" fill="none" xmlns="http://www.w3.org/2000/svg">
<path d="M8.85616 19.7582C9.30053 19.6642 12.0083 19.6642 12.4526 19.7582C12.8325 19.8459 13.2433 20.0509 13.2433 20.4986C13.2212 20.9247 12.9712 21.3025 12.6258 21.5424C12.1779 21.8916 11.6522 22.1127 11.1027 22.1924C10.7988 22.2318 10.5002 22.2327 10.2069 22.1924C9.65655 22.1127 9.13091 21.8916 8.68389 21.5415C8.33759 21.3025 8.08758 20.9247 8.06549 20.4986C8.06549 20.0509 8.47629 19.8459 8.85616 19.7582ZM10.7069 4.44449C12.5559 4.44449 14.4447 5.32184 15.5666 6.77752C16.2946 7.71486 16.6285 8.65129 16.6285 10.107V10.4857C16.6285 11.6021 16.9236 12.2601 17.5729 13.0183C18.065 13.577 18.2222 14.2941 18.2222 15.0721C18.2222 15.8491 17.9669 16.5868 17.4554 17.1858C16.7858 17.9038 15.8414 18.3621 14.8776 18.4418C13.4808 18.5609 12.0833 18.6611 10.6671 18.6611C9.25009 18.6611 7.85338 18.6012 6.45667 18.4418C5.49196 18.3621 4.54758 17.9038 3.87882 17.1858C3.36731 16.5868 3.11111 15.8491 3.11111 15.0721C3.11111 14.2941 3.26925 13.577 3.76044 13.0183C4.43008 12.2601 4.70571 11.6021 4.70571 10.4857V10.107C4.70571 8.6119 5.07852 7.63428 5.84622 6.67725C6.98762 5.28155 8.8172 4.44449 10.6274 4.44449H10.7069Z" fill="white"/>
<path d="M17.5556 3.77778C17.5556 4.75962 16.7596 5.55556 15.7778 5.55556C14.7959 5.55556 14 4.75962 14 3.77778C14 2.79594 14.7959 2 15.7778 2C16.7596 2 17.5556 2.79594 17.5556 3.77778Z" fill="#048FEE"/>
</svg>
