<svg width="21" height="20" viewBox="0 0 21 20" fill="none" xmlns="http://www.w3.org/2000/svg">
<path d="M15.9185 12.3201C15.6595 12.5711 15.5405 12.9341 15.5995 13.2901L16.4885 18.2101C16.5635 18.6271 16.3875 19.0491 16.0385 19.2901C15.6965 19.5401 15.2415 19.5701 14.8685 19.3701L10.4395 17.0601C10.2855 16.9781 10.1145 16.9341 9.93949 16.9291H9.66849C9.57449 16.9431 9.48249 16.9731 9.39849 17.0191L4.96849 19.3401C4.74949 19.4501 4.50149 19.4891 4.25849 19.4501C3.66649 19.3381 3.27149 18.7741 3.36849 18.1791L4.25849 13.2591C4.31749 12.9001 4.19849 12.5351 3.93949 12.2801L0.328494 8.78011C0.0264944 8.48711 -0.0785057 8.04711 0.0594943 7.65011C0.193494 7.25411 0.535494 6.96511 0.948494 6.90011L5.91849 6.17911C6.29649 6.14011 6.62849 5.91011 6.79849 5.57011L8.98849 1.08011C9.04049 0.980107 9.10749 0.888107 9.18849 0.810107L9.27849 0.740107C9.32549 0.688107 9.37949 0.645107 9.43949 0.610107L9.54849 0.570107L9.71849 0.500107H10.1395C10.5155 0.539107 10.8465 0.764107 11.0195 1.10011L13.2385 5.57011C13.3985 5.89711 13.7095 6.12411 14.0685 6.17911L19.0385 6.90011C19.4585 6.96011 19.8095 7.25011 19.9485 7.65011C20.0795 8.05111 19.9665 8.49111 19.6585 8.78011L15.9185 12.3201Z" fill="white"/>
</svg>
